<svg width="30" height="30" viewBox="0 0 30 30" fill="none" xmlns="http://www.w3.org/2000/svg">
<path d="M14.7 14.45C13.9707 14.45 13.2712 14.1603 12.7555 13.6445C12.2397 13.1288 11.95 12.4293 11.95 11.7C11.95 10.9707 12.2397 10.2712 12.7555 9.75546C13.2712 9.23973 13.9707 8.95 14.7 8.95C15.4293 8.95 16.1288 9.23973 16.6445 9.75546C17.1603 10.2712 17.45 10.9707 17.45 11.7C17.45 12.0611 17.3789 12.4187 17.2407 12.7524C17.1025 13.086 16.8999 13.3892 16.6445 13.6445C16.3892 13.8999 16.086 14.1025 15.7524 14.2407C15.4187 14.3789 15.0611 14.45 14.7 14.45ZM14.7 4C12.6578 4 10.6993 4.81125 9.25528 6.25528C7.81125 7.69931 7 9.65783 7 11.7C7 17.475 14.7 26 14.7 26C14.7 26 22.4 17.475 22.4 11.7C22.4 9.65783 21.5888 7.69931 20.1447 6.25528C18.7007 4.81125 16.7422 4 14.7 4Z" fill="black" fill-opacity="0.7"/>
</svg>
