<svg width="30" height="30" viewBox="0 0 30 30" fill="none" xmlns="http://www.w3.org/2000/svg">
<path d="M6.44444 12.3333L8.27778 6.83333H21.7222L23.5556 12.3333M21.7222 18.4444C21.236 18.4444 20.7697 18.2513 20.4259 17.9075C20.082 17.5637 19.8889 17.0973 19.8889 16.6111C19.8889 16.1249 20.082 15.6586 20.4259 15.3147C20.7697 14.9709 21.236 14.7778 21.7222 14.7778C22.2085 14.7778 22.6748 14.9709 23.0186 15.3147C23.3624 15.6586 23.5556 16.1249 23.5556 16.6111C23.5556 17.0973 23.3624 17.5637 23.0186 17.9075C22.6748 18.2513 22.2085 18.4444 21.7222 18.4444ZM8.27778 18.4444C7.79155 18.4444 7.32523 18.2513 6.98142 17.9075C6.6376 17.5637 6.44444 17.0973 6.44444 16.6111C6.44444 16.1249 6.6376 15.6586 6.98142 15.3147C7.32523 14.9709 7.79155 14.7778 8.27778 14.7778C8.76401 14.7778 9.23032 14.9709 9.57414 15.3147C9.91796 15.6586 10.1111 16.1249 10.1111 16.6111C10.1111 17.0973 9.91796 17.5637 9.57414 17.9075C9.23032 18.2513 8.76401 18.4444 8.27778 18.4444ZM23.4578 6.22222C23.2133 5.51333 22.5289 5 21.7222 5H8.27778C7.47111 5 6.78667 5.51333 6.54222 6.22222L4 13.5556V23.3333C4 23.6575 4.12877 23.9684 4.35798 24.1976C4.58719 24.4268 4.89807 24.5556 5.22222 24.5556H6.44444C6.7686 24.5556 7.07947 24.4268 7.30869 24.1976C7.5379 23.9684 7.66667 23.6575 7.66667 23.3333V22.1111H22.3333V23.3333C22.3333 23.6575 22.4621 23.9684 22.6913 24.1976C22.9205 24.4268 23.2314 24.5556 23.5556 24.5556H24.7778C25.1019 24.5556 25.4128 24.4268 25.642 24.1976C25.8712 23.9684 26 23.6575 26 23.3333V13.5556L23.4578 6.22222Z" fill="black" fill-opacity="0.7"/>
</svg>
