<svg width="30" height="30" viewBox="0 0 30 30" fill="none" xmlns="http://www.w3.org/2000/svg">
<path d="M23.8 6H6.2C4.99 6 4.011 6.99 4.011 8.2L4 21.4C4 22.61 4.99 23.6 6.2 23.6H23.8C25.01 23.6 26 22.61 26 21.4V8.2C26 6.99 25.01 6 23.8 6ZM23.36 10.675L15.583 15.537C15.231 15.757 14.769 15.757 14.417 15.537L6.64 10.675C6.5297 10.6131 6.43311 10.5294 6.35608 10.4291C6.27904 10.3288 6.22317 10.2139 6.19183 10.0913C6.1605 9.96876 6.15435 9.84113 6.17377 9.71614C6.19319 9.59115 6.23777 9.47139 6.30481 9.36413C6.37185 9.25687 6.45996 9.16432 6.5638 9.09209C6.66764 9.01987 6.78506 8.96946 6.90895 8.94393C7.03283 8.91839 7.16061 8.91826 7.28455 8.94354C7.40849 8.96882 7.52601 9.01899 7.63 9.091L15 13.7L22.37 9.091C22.474 9.01899 22.5915 8.96882 22.7155 8.94354C22.8394 8.91826 22.9672 8.91839 23.0911 8.94393C23.2149 8.96946 23.3324 9.01987 23.4362 9.09209C23.54 9.16432 23.6282 9.25687 23.6952 9.36413C23.7622 9.47139 23.8068 9.59115 23.8262 9.71614C23.8456 9.84113 23.8395 9.96876 23.8082 10.0913C23.7768 10.2139 23.721 10.3288 23.6439 10.4291C23.5669 10.5294 23.4703 10.6131 23.36 10.675Z" fill="black" fill-opacity="0.7"/>
</svg>
