<svg width="28" height="30" viewBox="0 0 28 30" fill="none" xmlns="http://www.w3.org/2000/svg">
<path d="M23.8333 11.6667C23.3913 11.6667 22.9674 11.4911 22.6548 11.1785C22.3423 10.8659 22.1667 10.442 22.1667 10C22.1667 9.55797 22.3423 9.13405 22.6548 8.82149C22.9674 8.50893 23.3913 8.33333 23.8333 8.33333C24.2754 8.33333 24.6993 8.50893 25.0118 8.82149C25.3244 9.13405 25.5 9.55797 25.5 10C25.5 10.442 25.3244 10.8659 25.0118 11.1785C24.6993 11.4911 24.2754 11.6667 23.8333 11.6667ZM13.8333 11.6667H3.83333V3.33333H13.8333M26.7833 7.05L26.8 7.03333L20.6 0.833333L18.8333 2.6L22.35 6.11667C20.7833 6.66667 19.6667 8.21667 19.6667 10C19.6667 10.5472 19.7744 11.089 19.9838 11.5945C20.1932 12.1 20.5001 12.5594 20.8871 12.9463C21.6685 13.7277 22.7283 14.1667 23.8333 14.1667C24.4333 14.1667 24.9833 14.0333 25.5 13.8167V25.8333C25.5 26.2754 25.3244 26.6993 25.0118 27.0118C24.6993 27.3244 24.2754 27.5 23.8333 27.5C23.3913 27.5 22.9674 27.3244 22.6548 27.0118C22.3423 26.6993 22.1667 26.2754 22.1667 25.8333V18.3333C22.1667 17.4493 21.8155 16.6014 21.1904 15.9763C20.5652 15.3512 19.7174 15 18.8333 15H17.1667V3.33333C17.1667 2.44928 16.8155 1.60143 16.1904 0.976311C15.5652 0.351189 14.7174 0 13.8333 0H3.83333C1.98333 0 0.5 1.48333 0.5 3.33333V30H17.1667V17.5H19.6667V25.8333C19.6667 26.9384 20.1057 27.9982 20.8871 28.7796C21.6685 29.561 22.7283 30 23.8333 30C24.3805 30 24.9223 29.8922 25.4278 29.6828C25.9334 29.4734 26.3927 29.1665 26.7796 28.7796C27.1665 28.3927 27.4734 27.9334 27.6828 27.4278C27.8922 26.9223 28 26.3805 28 25.8333V10C28 8.85 27.5333 7.8 26.7833 7.05Z" fill="#3D3D3D"/>
</svg>
