<svg width="30" height="30" viewBox="0 0 30 30" fill="none" xmlns="http://www.w3.org/2000/svg">
<path fill-rule="evenodd" clip-rule="evenodd" d="M4 9.2C4 8.61652 4.23179 8.05695 4.64437 7.64437C5.05695 7.23179 5.61652 7 6.2 7H23.8C24.3835 7 24.9431 7.23179 25.3556 7.64437C25.7682 8.05695 26 8.61652 26 9.2V20.9333C26 21.5168 25.7682 22.0764 25.3556 22.489C24.9431 22.9015 24.3835 23.1333 23.8 23.1333H6.2C5.61652 23.1333 5.05695 22.9015 4.64437 22.489C4.23179 22.0764 4 21.5168 4 20.9333V9.2ZM8.4 12.8667C8.4 12.0887 8.70905 11.3426 9.25915 10.7925C9.80926 10.2424 10.5554 9.93333 11.3333 9.93333C12.1113 9.93333 12.8574 10.2424 13.4075 10.7925C13.9576 11.3426 14.2667 12.0887 14.2667 12.8667C14.2667 13.6446 13.9576 14.3907 13.4075 14.9408C12.8574 15.491 12.1113 15.8 11.3333 15.8C10.5554 15.8 9.80926 15.491 9.25915 14.9408C8.70905 14.3907 8.4 13.6446 8.4 12.8667ZM21.6 12.8667H17.2V11.4H21.6V12.8667ZM21.6 17.2667H17.2V15.8H21.6V17.2667ZM11.3333 17.2667C10.5361 17.2667 9.75458 17.4887 9.0764 17.9078C8.39821 18.3269 7.85014 18.9267 7.4936 19.6397L7.0096 20.6048C6.95352 20.7167 6.92702 20.8411 6.93263 20.9662C6.93823 21.0912 6.97575 21.2128 7.04162 21.3192C7.10749 21.4257 7.19951 21.5135 7.30892 21.5743C7.41833 21.6351 7.54149 21.6669 7.66667 21.6667H15C15.1251 21.6667 15.248 21.6347 15.3572 21.5738C15.4665 21.5128 15.5583 21.425 15.624 21.3186C15.6897 21.2122 15.7271 21.0907 15.7326 20.9658C15.7381 20.8409 15.7116 20.7166 15.6556 20.6048L15.1731 19.6397C14.8165 18.9267 14.2685 18.3269 13.5903 17.9078C12.9121 17.4887 12.1306 17.2667 11.3333 17.2667Z" fill="black" fill-opacity="0.7"/>
</svg>
