<svg width="22" height="22" viewBox="0 0 22 22" fill="none" xmlns="http://www.w3.org/2000/svg">
<path d="M11 0C13.9174 0 16.7153 1.15893 18.7782 3.22183C20.8411 5.28473 22 8.08262 22 11C22 13.9174 20.8411 16.7153 18.7782 18.7782C16.7153 20.8411 13.9174 22 11 22C8.08262 22 5.28473 20.8411 3.22183 18.7782C1.15892 16.7153 0 13.9174 0 11C0 8.08262 1.15892 5.28473 3.22183 3.22183C5.28473 1.15893 8.08262 0 11 0ZM12.6499 6.75352C13.467 6.75352 14.1301 6.18627 14.1301 5.34562C14.1301 4.50496 13.4654 3.93772 12.6499 3.93772C11.8328 3.93772 11.1728 4.50496 11.1728 5.34562C11.1728 6.18627 11.8328 6.75352 12.6499 6.75352ZM12.9374 15.5953C12.9374 15.4272 12.9956 14.9904 12.9626 14.7421L11.671 16.2286C11.4038 16.5098 11.0691 16.7047 10.912 16.6528C10.8407 16.6266 10.7811 16.5758 10.744 16.5095C10.7068 16.4433 10.6945 16.3659 10.7093 16.2914L12.862 9.49075C13.038 8.6281 12.554 7.84087 11.528 7.74031C10.4453 7.74031 8.85201 8.83866 7.88251 10.2324C7.88251 10.399 7.85108 10.8138 7.88408 11.0621L9.17413 9.57403C9.44125 9.29591 9.75238 9.09949 9.90951 9.15292C9.98692 9.1807 10.0504 9.23773 10.0862 9.31177C10.122 9.3858 10.1274 9.47093 10.1012 9.54889L7.96736 16.3166C7.72066 17.1085 8.18734 17.8847 9.31869 18.0607C10.9843 18.0607 11.9679 16.9891 12.939 15.5953H12.9374Z" fill="white"/>
</svg>
