<svg width="88" height="48" viewBox="0 0 88 48" fill="none" xmlns="http://www.w3.org/2000/svg">
<path d="M5.434 13.156C4.732 13.156 4.07767 13.0433 3.471 12.818C2.873 12.584 2.353 12.2547 1.911 11.83C1.469 11.4053 1.12233 10.907 0.871 10.335C0.628333 9.763 0.507 9.13467 0.507 8.45C0.507 7.76533 0.628333 7.137 0.871 6.565C1.12233 5.993 1.469 5.49467 1.911 5.07C2.36167 4.64533 2.886 4.32033 3.484 4.095C4.082 3.861 4.73633 3.744 5.447 3.744C6.23567 3.744 6.94633 3.88267 7.579 4.16C8.22033 4.42867 8.75767 4.82733 9.191 5.356L7.839 6.604C7.527 6.24867 7.18033 5.98433 6.799 5.811C6.41767 5.629 6.00167 5.538 5.551 5.538C5.12633 5.538 4.73633 5.60733 4.381 5.746C4.02567 5.88467 3.718 6.084 3.458 6.344C3.198 6.604 2.99433 6.91167 2.847 7.267C2.70833 7.62233 2.639 8.01667 2.639 8.45C2.639 8.88333 2.70833 9.27767 2.847 9.633C2.99433 9.98833 3.198 10.296 3.458 10.556C3.718 10.816 4.02567 11.0153 4.381 11.154C4.73633 11.2927 5.12633 11.362 5.551 11.362C6.00167 11.362 6.41767 11.2753 6.799 11.102C7.18033 10.92 7.527 10.647 7.839 10.283L9.191 11.531C8.75767 12.0597 8.22033 12.4627 7.579 12.74C6.94633 13.0173 6.23133 13.156 5.434 13.156ZM15.1028 13.156C14.3834 13.156 13.7161 13.039 13.1008 12.805C12.4941 12.571 11.9654 12.2417 11.5148 11.817C11.0728 11.3923 10.7261 10.894 10.4748 10.322C10.2321 9.75 10.1108 9.126 10.1108 8.45C10.1108 7.774 10.2321 7.15 10.4748 6.578C10.7261 6.006 11.0771 5.50767 11.5278 5.083C11.9784 4.65833 12.5071 4.329 13.1138 4.095C13.7204 3.861 14.3791 3.744 15.0898 3.744C15.8091 3.744 16.4678 3.861 17.0658 4.095C17.6724 4.329 18.1968 4.65833 18.6388 5.083C19.0894 5.50767 19.4404 6.006 19.6918 6.578C19.9431 7.14133 20.0688 7.76533 20.0688 8.45C20.0688 9.126 19.9431 9.75433 19.6918 10.335C19.4404 10.907 19.0894 11.4053 18.6388 11.83C18.1968 12.246 17.6724 12.571 17.0658 12.805C16.4678 13.039 15.8134 13.156 15.1028 13.156ZM15.0898 11.362C15.4971 11.362 15.8698 11.2927 16.2078 11.154C16.5544 11.0153 16.8578 10.816 17.1178 10.556C17.3778 10.296 17.5771 9.98833 17.7158 9.633C17.8631 9.27767 17.9368 8.88333 17.9368 8.45C17.9368 8.01667 17.8631 7.62233 17.7158 7.267C17.5771 6.91167 17.3778 6.604 17.1178 6.344C16.8664 6.084 16.5674 5.88467 16.2208 5.746C15.8741 5.60733 15.4971 5.538 15.0898 5.538C14.6824 5.538 14.3054 5.60733 13.9588 5.746C13.6208 5.88467 13.3218 6.084 13.0618 6.344C12.8018 6.604 12.5981 6.91167 12.4508 7.267C12.3121 7.62233 12.2428 8.01667 12.2428 8.45C12.2428 8.87467 12.3121 9.269 12.4508 9.633C12.5981 9.98833 12.7974 10.296 13.0488 10.556C13.3088 10.816 13.6121 11.0153 13.9588 11.154C14.3054 11.2927 14.6824 11.362 15.0898 11.362ZM26.3315 13.156C25.6122 13.156 24.9448 13.039 24.3295 12.805C23.7228 12.571 23.1942 12.2417 22.7435 11.817C22.3015 11.3923 21.9548 10.894 21.7035 10.322C21.4608 9.75 21.3395 9.126 21.3395 8.45C21.3395 7.774 21.4608 7.15 21.7035 6.578C21.9548 6.006 22.3058 5.50767 22.7565 5.083C23.2072 4.65833 23.7358 4.329 24.3425 4.095C24.9492 3.861 25.6078 3.744 26.3185 3.744C27.0378 3.744 27.6965 3.861 28.2945 4.095C28.9012 4.329 29.4255 4.65833 29.8675 5.083C30.3182 5.50767 30.6692 6.006 30.9205 6.578C31.1718 7.14133 31.2975 7.76533 31.2975 8.45C31.2975 9.126 31.1718 9.75433 30.9205 10.335C30.6692 10.907 30.3182 11.4053 29.8675 11.83C29.4255 12.246 28.9012 12.571 28.2945 12.805C27.6965 13.039 27.0422 13.156 26.3315 13.156ZM26.3185 11.362C26.7258 11.362 27.0985 11.2927 27.4365 11.154C27.7832 11.0153 28.0865 10.816 28.3465 10.556C28.6065 10.296 28.8058 9.98833 28.9445 9.633C29.0918 9.27767 29.1655 8.88333 29.1655 8.45C29.1655 8.01667 29.0918 7.62233 28.9445 7.267C28.8058 6.91167 28.6065 6.604 28.3465 6.344C28.0952 6.084 27.7962 5.88467 27.4495 5.746C27.1028 5.60733 26.7258 5.538 26.3185 5.538C25.9112 5.538 25.5342 5.60733 25.1875 5.746C24.8495 5.88467 24.5505 6.084 24.2905 6.344C24.0305 6.604 23.8268 6.91167 23.6795 7.267C23.5408 7.62233 23.4715 8.01667 23.4715 8.45C23.4715 8.87467 23.5408 9.269 23.6795 9.633C23.8268 9.98833 24.0262 10.296 24.2775 10.556C24.5375 10.816 24.8408 11.0153 25.1875 11.154C25.5342 11.2927 25.9112 11.362 26.3185 11.362ZM33.1402 13V3.9H35.2462V11.284H39.8092V13H33.1402ZM45.1876 13V3.9H46.9296L52.2986 10.452H51.4536V3.9H53.5336V13H51.8046L46.4226 6.448H47.2676V13H45.1876ZM54.7506 13L58.8066 3.9H60.8866L64.9556 13H62.7456L59.4176 4.966H60.2496L56.9086 13H54.7506ZM56.7786 11.05L57.3376 9.451H62.0176L62.5896 11.05H56.7786ZM66.1597 13V3.9H67.9017L71.7757 10.322H70.8527L74.6617 3.9H76.3907L76.4167 13H74.4407L74.4277 6.929H74.7917L71.7497 12.038H70.8007L67.6937 6.929H68.1357V13H66.1597ZM80.7728 7.566H85.1538V9.204H80.7728V7.566ZM80.9288 11.31H85.8818V13H78.8358V3.9H85.7128V5.59H80.9288V11.31Z" fill="white"/>
<path d="M4.23 26.12C3.67667 26.12 3.16333 26.03 2.69 25.85C2.22333 25.67 1.81667 25.4167 1.47 25.09C1.13 24.7633 0.863333 24.38 0.67 23.94C0.483333 23.5 0.39 23.02 0.39 22.5C0.39 21.98 0.483333 21.5 0.67 21.06C0.863333 20.62 1.13333 20.2367 1.48 19.91C1.82667 19.5833 2.23333 19.33 2.7 19.15C3.16667 18.97 3.67333 18.88 4.22 18.88C4.77333 18.88 5.28 18.97 5.74 19.15C6.20667 19.33 6.61 19.5833 6.95 19.91C7.29667 20.2367 7.56667 20.62 7.76 21.06C7.95333 21.4933 8.05 21.9733 8.05 22.5C8.05 23.02 7.95333 23.5033 7.76 23.95C7.56667 24.39 7.29667 24.7733 6.95 25.1C6.61 25.42 6.20667 25.67 5.74 25.85C5.28 26.03 4.77667 26.12 4.23 26.12ZM4.22 24.74C4.53333 24.74 4.82 24.6867 5.08 24.58C5.34667 24.4733 5.58 24.32 5.78 24.12C5.98 23.92 6.13333 23.6833 6.24 23.41C6.35333 23.1367 6.41 22.8333 6.41 22.5C6.41 22.1667 6.35333 21.8633 6.24 21.59C6.13333 21.3167 5.98 21.08 5.78 20.88C5.58667 20.68 5.35667 20.5267 5.09 20.42C4.82333 20.3133 4.53333 20.26 4.22 20.26C3.90667 20.26 3.61667 20.3133 3.35 20.42C3.09 20.5267 2.86 20.68 2.66 20.88C2.46 21.08 2.30333 21.3167 2.19 21.59C2.08333 21.8633 2.03 22.1667 2.03 22.5C2.03 22.8267 2.08333 23.13 2.19 23.41C2.30333 23.6833 2.45667 23.92 2.65 24.12C2.85 24.32 3.08333 24.4733 3.35 24.58C3.61667 24.6867 3.90667 24.74 4.22 24.74ZM10.7675 22.15H14.1275V23.45H10.7675V22.15ZM10.8875 26H9.2675V19H14.5575V20.3H10.8875V26ZM21.8863 26.12C21.3329 26.12 20.8196 26.03 20.3463 25.85C19.8796 25.67 19.4729 25.4167 19.1262 25.09C18.7863 24.7633 18.5196 24.38 18.3263 23.94C18.1396 23.5 18.0463 23.02 18.0463 22.5C18.0463 21.98 18.1396 21.5 18.3263 21.06C18.5196 20.62 18.7896 20.2367 19.1363 19.91C19.4829 19.5833 19.8896 19.33 20.3563 19.15C20.8229 18.97 21.3296 18.88 21.8763 18.88C22.4296 18.88 22.9362 18.97 23.3963 19.15C23.8629 19.33 24.2663 19.5833 24.6063 19.91C24.9529 20.2367 25.2229 20.62 25.4163 21.06C25.6096 21.4933 25.7063 21.9733 25.7063 22.5C25.7063 23.02 25.6096 23.5033 25.4163 23.95C25.2229 24.39 24.9529 24.7733 24.6063 25.1C24.2663 25.42 23.8629 25.67 23.3963 25.85C22.9362 26.03 22.4329 26.12 21.8863 26.12ZM21.8763 24.74C22.1896 24.74 22.4763 24.6867 22.7363 24.58C23.0029 24.4733 23.2363 24.32 23.4363 24.12C23.6363 23.92 23.7896 23.6833 23.8963 23.41C24.0096 23.1367 24.0663 22.8333 24.0663 22.5C24.0663 22.1667 24.0096 21.8633 23.8963 21.59C23.7896 21.3167 23.6363 21.08 23.4363 20.88C23.2429 20.68 23.0129 20.5267 22.7463 20.42C22.4796 20.3133 22.1896 20.26 21.8763 20.26C21.5629 20.26 21.2729 20.3133 21.0063 20.42C20.7463 20.5267 20.5163 20.68 20.3163 20.88C20.1163 21.08 19.9596 21.3167 19.8463 21.59C19.7396 21.8633 19.6863 22.1667 19.6863 22.5C19.6863 22.8267 19.7396 23.13 19.8463 23.41C19.9596 23.6833 20.1129 23.92 20.3063 24.12C20.5063 24.32 20.7396 24.4733 21.0063 24.58C21.2729 24.6867 21.5629 24.74 21.8763 24.74ZM30.0338 26.12C29.0404 26.12 28.2638 25.8433 27.7038 25.29C27.1438 24.7367 26.8638 23.9467 26.8638 22.92V19H28.4838V22.86C28.4838 23.5267 28.6204 24.0067 28.8938 24.3C29.1671 24.5933 29.5504 24.74 30.0438 24.74C30.5371 24.74 30.9204 24.5933 31.1938 24.3C31.4671 24.0067 31.6037 23.5267 31.6037 22.86V19H33.2038V22.92C33.2038 23.9467 32.9238 24.7367 32.3638 25.29C31.8038 25.8433 31.0271 26.12 30.0338 26.12ZM34.8046 26V19H37.8346C38.4613 19 39.0013 19.1033 39.4546 19.31C39.9079 19.51 40.2579 19.8 40.5046 20.18C40.7513 20.56 40.8746 21.0133 40.8746 21.54C40.8746 22.06 40.7513 22.51 40.5046 22.89C40.2579 23.2633 39.9079 23.55 39.4546 23.75C39.0013 23.95 38.4613 24.05 37.8346 24.05H35.7046L36.4246 23.34V26H34.8046ZM39.2546 26L37.5046 23.46H39.2346L41.0046 26H39.2546ZM36.4246 23.52L35.7046 22.76H37.7446C38.2446 22.76 38.6179 22.6533 38.8646 22.44C39.1113 22.22 39.2346 21.92 39.2346 21.54C39.2346 21.1533 39.1113 20.8533 38.8646 20.64C38.6179 20.4267 38.2446 20.32 37.7446 20.32H35.7046L36.4246 19.55V23.52ZM40.9981 27L44.2981 17.58H45.6881L42.3881 27H40.9981ZM44.1817 27L47.4817 17.58H48.8717L45.5717 27H44.1817ZM47.3653 27L50.6653 17.58H52.0553L48.7553 27H47.3653ZM50.5489 27L53.8489 17.58H55.2389L51.9389 27H50.5489ZM53.7325 27L57.0325 17.58H58.4225L55.1225 27H53.7325ZM56.9161 27L60.2161 17.58H61.6061L58.3061 27H56.9161ZM60.0997 27L63.3997 17.58H64.7897L61.4897 27H60.0997Z" fill="white"/>
<path d="M1.90025 43V30.4H7.35425C8.48225 30.4 9.45425 30.586 10.2703 30.958C11.0863 31.318 11.7163 31.84 12.1603 32.524C12.6043 33.208 12.8263 34.024 12.8263 34.972C12.8263 35.908 12.6043 36.718 12.1603 37.402C11.7163 38.086 11.0863 38.614 10.2703 38.986C9.45425 39.346 8.48225 39.526 7.35425 39.526H3.52025L4.81625 38.212V43H1.90025ZM4.81625 38.536L3.52025 37.15H7.19225C8.09225 37.15 8.76425 36.958 9.20825 36.574C9.65225 36.19 9.87425 35.656 9.87425 34.972C9.87425 34.276 9.65225 33.736 9.20825 33.352C8.76425 32.968 8.09225 32.776 7.19225 32.776H3.52025L4.81625 31.39V38.536ZM14.9081 43V30.4H20.3621C21.4901 30.4 22.4621 30.586 23.2781 30.958C24.0941 31.318 24.7241 31.84 25.1681 32.524C25.6121 33.208 25.8341 34.024 25.8341 34.972C25.8341 35.908 25.6121 36.718 25.1681 37.402C24.7241 38.074 24.0941 38.59 23.2781 38.95C22.4621 39.31 21.4901 39.49 20.3621 39.49H16.5281L17.8241 38.212V43H14.9081ZM22.9181 43L19.7681 38.428H22.8821L26.0681 43H22.9181ZM17.8241 38.536L16.5281 37.168H20.2001C21.1001 37.168 21.7721 36.976 22.2161 36.592C22.6601 36.196 22.8821 35.656 22.8821 34.972C22.8821 34.276 22.6601 33.736 22.2161 33.352C21.7721 32.968 21.1001 32.776 20.2001 32.776H16.5281L17.8241 31.39V38.536ZM34.2644 43.216C33.2684 43.216 32.3444 43.054 31.4924 42.73C30.6524 42.406 29.9204 41.95 29.2964 41.362C28.6844 40.774 28.2044 40.084 27.8564 39.292C27.5204 38.5 27.3524 37.636 27.3524 36.7C27.3524 35.764 27.5204 34.9 27.8564 34.108C28.2044 33.316 28.6904 32.626 29.3144 32.038C29.9384 31.45 30.6704 30.994 31.5104 30.67C32.3504 30.346 33.2624 30.184 34.2464 30.184C35.2424 30.184 36.1544 30.346 36.9824 30.67C37.8224 30.994 38.5484 31.45 39.1604 32.038C39.7844 32.626 40.2704 33.316 40.6184 34.108C40.9664 34.888 41.1404 35.752 41.1404 36.7C41.1404 37.636 40.9664 38.506 40.6184 39.31C40.2704 40.102 39.7844 40.792 39.1604 41.38C38.5484 41.956 37.8224 42.406 36.9824 42.73C36.1544 43.054 35.2484 43.216 34.2644 43.216ZM34.2464 40.732C34.8104 40.732 35.3264 40.636 35.7944 40.444C36.2744 40.252 36.6944 39.976 37.0544 39.616C37.4144 39.256 37.6904 38.83 37.8824 38.338C38.0864 37.846 38.1884 37.3 38.1884 36.7C38.1884 36.1 38.0864 35.554 37.8824 35.062C37.6904 34.57 37.4144 34.144 37.0544 33.784C36.7064 33.424 36.2924 33.148 35.8124 32.956C35.3324 32.764 34.8104 32.668 34.2464 32.668C33.6824 32.668 33.1604 32.764 32.6804 32.956C32.2124 33.148 31.7984 33.424 31.4384 33.784C31.0784 34.144 30.7964 34.57 30.5924 35.062C30.4004 35.554 30.3044 36.1 30.3044 36.7C30.3044 37.288 30.4004 37.834 30.5924 38.338C30.7964 38.83 31.0724 39.256 31.4204 39.616C31.7804 39.976 32.2004 40.252 32.6804 40.444C33.1604 40.636 33.6824 40.732 34.2464 40.732ZM45.3902 43.216C44.5382 43.216 43.7522 43.06 43.0322 42.748C42.3242 42.424 41.7422 41.968 41.2862 41.38L42.9062 39.436C43.2542 39.892 43.6202 40.24 44.0042 40.48C44.3882 40.708 44.8022 40.822 45.2462 40.822C46.4342 40.822 47.0282 40.126 47.0282 38.734V32.74H42.6002V30.4H49.9262V38.572C49.9262 40.132 49.5422 41.296 48.7742 42.064C48.0062 42.832 46.8782 43.216 45.3902 43.216ZM55.4885 35.476H61.5545V37.744H55.4885V35.476ZM55.7045 40.66H62.5625V43H52.8065V30.4H62.3285V32.74H55.7045V40.66ZM70.9127 43.216C69.9407 43.216 69.0347 43.06 68.1947 42.748C67.3667 42.424 66.6467 41.968 66.0347 41.38C65.4227 40.792 64.9427 40.102 64.5947 39.31C64.2587 38.518 64.0907 37.648 64.0907 36.7C64.0907 35.752 64.2587 34.882 64.5947 34.09C64.9427 33.298 65.4227 32.608 66.0347 32.02C66.6587 31.432 67.3847 30.982 68.2127 30.67C69.0407 30.346 69.9467 30.184 70.9307 30.184C72.0227 30.184 73.0067 30.376 73.8827 30.76C74.7707 31.132 75.5147 31.684 76.1147 32.416L74.2427 34.144C73.8107 33.652 73.3307 33.286 72.8027 33.046C72.2747 32.794 71.6987 32.668 71.0747 32.668C70.4867 32.668 69.9467 32.764 69.4547 32.956C68.9627 33.148 68.5367 33.424 68.1767 33.784C67.8167 34.144 67.5347 34.57 67.3307 35.062C67.1387 35.554 67.0427 36.1 67.0427 36.7C67.0427 37.3 67.1387 37.846 67.3307 38.338C67.5347 38.83 67.8167 39.256 68.1767 39.616C68.5367 39.976 68.9627 40.252 69.4547 40.444C69.9467 40.636 70.4867 40.732 71.0747 40.732C71.6987 40.732 72.2747 40.612 72.8027 40.372C73.3307 40.12 73.8107 39.742 74.2427 39.238L76.1147 40.966C75.5147 41.698 74.7707 42.256 73.8827 42.64C73.0067 43.024 72.0167 43.216 70.9127 43.216ZM80.5708 43V32.776H76.5388V30.4H87.5188V32.776H83.4868V43H80.5708Z" fill="white"/>
<g clip-path="url(#clip0_241_322)">
<path d="M86.89 18.6L78.57 16.33C77.2 15.9582 75.7396 16.1264 74.49 16.8L70.83 18.8L65.5 19.8C65.1039 19.8 64.7239 19.9567 64.4429 20.2358C64.1618 20.515 64.0026 20.894 64 21.29V24.29C64 24.6879 64.158 25.0694 64.4393 25.3507C64.7206 25.632 65.1022 25.79 65.5 25.79H66.5C66.5983 26.37 66.8987 26.8965 67.3481 27.2761C67.7975 27.6558 68.3667 27.864 68.955 27.864C69.5433 27.864 70.1125 27.6558 70.5619 27.2761C71.0113 26.8965 71.3117 26.37 71.41 25.79H80.5C80.5983 26.37 80.8987 26.8965 81.3481 27.2761C81.7975 27.6558 82.3667 27.864 82.955 27.864C83.5433 27.864 84.1125 27.6558 84.5619 27.2761C85.0113 26.8965 85.3117 26.37 85.41 25.79H86.41C86.8078 25.79 87.1894 25.632 87.4707 25.3507C87.752 25.0694 87.91 24.6879 87.91 24.29V20C87.9056 19.6899 87.8052 19.3887 87.6225 19.1379C87.4398 18.8872 87.1839 18.6993 86.89 18.6ZM82 18.31V18.79H81.3L80.91 18L82 18.31ZM75 17.69C75.962 17.1767 77.0769 17.0276 78.14 17.27H78.34H78.51L79.65 17.58L80.21 18.71H73L75 17.69ZM69 26.86C68.7033 26.86 68.4133 26.7721 68.1666 26.6073C67.92 26.4424 67.7277 26.2082 67.6142 25.9341C67.5006 25.66 67.4709 25.3584 67.5288 25.0674C67.5867 24.7764 67.7296 24.5092 67.9393 24.2994C68.1491 24.0896 68.4164 23.9467 68.7074 23.8889C68.9983 23.831 69.2999 23.8607 69.574 23.9742C69.8481 24.0878 70.0824 24.28 70.2472 24.5267C70.412 24.7734 70.5 25.0634 70.5 25.36C70.5 25.7579 70.342 26.1394 70.0607 26.4207C69.7794 26.702 69.3978 26.86 69 26.86ZM83 26.86C82.7033 26.86 82.4133 26.7721 82.1666 26.6073C81.92 26.4424 81.7277 26.2082 81.6142 25.9341C81.5007 25.66 81.4709 25.3584 81.5288 25.0674C81.5867 24.7764 81.7296 24.5092 81.9393 24.2994C82.1491 24.0896 82.4164 23.9467 82.7074 23.8889C82.9983 23.831 83.2999 23.8607 83.574 23.9742C83.8481 24.0878 84.0824 24.28 84.2472 24.5267C84.412 24.7734 84.5 25.0634 84.5 25.36C84.5 25.7579 84.342 26.1394 84.0607 26.4207C83.7794 26.702 83.3978 26.86 83 26.86ZM87 21.79H86.5C86.3674 21.79 86.2402 21.8427 86.1464 21.9365C86.0527 22.0303 86 22.1574 86 22.29C86 22.4227 86.0527 22.5498 86.1464 22.6436C86.2402 22.7374 86.3674 22.79 86.5 22.79H87V24.29C87 24.4227 86.9473 24.5498 86.8536 24.6436C86.7598 24.7374 86.6326 24.79 86.5 24.79H85.43C85.3024 24.2426 84.9933 23.7544 84.553 23.4049C84.1127 23.0555 83.5671 22.8653 83.005 22.8653C82.4429 22.8653 81.8973 23.0555 81.457 23.4049C81.0167 23.7544 80.7076 24.2426 80.58 24.79H71.43C71.3024 24.2426 70.9933 23.7544 70.553 23.4049C70.1127 23.0555 69.5671 22.8653 69.005 22.8653C68.4429 22.8653 67.8973 23.0555 67.457 23.4049C67.0167 23.7544 66.7076 24.2426 66.58 24.79H65.5C65.3674 24.79 65.2402 24.7374 65.1464 24.6436C65.0527 24.5498 65 24.4227 65 24.29V22.79H65.5C65.6326 22.79 65.7598 22.7374 65.8536 22.6436C65.9473 22.5498 66 22.4227 66 22.29C66 22.1574 65.9473 22.0303 65.8536 21.9365C65.7598 21.8427 65.6326 21.79 65.5 21.79H65V21.29C65.0037 21.2173 65.0221 21.146 65.0541 21.0806C65.0861 21.0151 65.131 20.9568 65.1862 20.9091C65.2413 20.8615 65.3055 20.8255 65.3749 20.8033C65.4443 20.7811 65.5175 20.7732 65.59 20.78L71 19.79H82.5C82.6326 19.79 82.7598 19.7374 82.8536 19.6436C82.9473 19.5498 83 19.4227 83 19.29V18.58L86.63 19.58C86.7265 19.6052 86.8133 19.6586 86.8793 19.7334C86.9452 19.8083 86.9873 19.9011 87 20V21.79ZM79.5 22.79H72.5C72.3674 22.79 72.2402 22.8427 72.1464 22.9365C72.0527 23.0303 72 23.1574 72 23.29C72 23.4227 72.0527 23.5498 72.1464 23.6436C72.2402 23.7374 72.3674 23.79 72.5 23.79H79.5C79.6326 23.79 79.7598 23.7374 79.8536 23.6436C79.9473 23.5498 80 23.4227 80 23.29C80 23.1574 79.9473 23.0303 79.8536 22.9365C79.7598 22.8427 79.6326 22.79 79.5 22.79Z" fill="white"/>
</g>
<defs>
<clipPath id="clip0_241_322">
<rect width="24" height="24" fill="white" transform="translate(64 10)"/>
</clipPath>
</defs>
</svg>
