<svg width="31" height="30" viewBox="0 0 31 30" fill="none" xmlns="http://www.w3.org/2000/svg">
<g clip-path="url(#clip0_220_37)">
<path d="M2.015 0L0.5 1.515L3.16885 6.13038L4.89962 5.87654L15.4642 16.4423L14.5631 17.3077C14.1015 17.7692 14.1015 18.4685 14.5631 18.93L15.0315 19.3996C15.4931 19.8612 16.1992 19.8612 16.5454 19.3996L17.9162 20.7692C17.8008 21.4615 17.9162 22.2842 18.4931 22.8612L24.7308 29.0631C26 30.3323 28.0769 30.3323 29.3462 29.0631C30.8462 27.6785 30.8323 25.6085 29.5631 24.3392L23.3612 18.1004C22.7842 17.5235 21.9615 17.2927 21.2692 17.5235L19.7542 16.1538C20.1004 15.6923 20.1004 14.9862 19.7542 14.6388L19.3215 14.2073C19.2166 14.0979 19.0907 14.0109 18.9513 13.9514C18.8119 13.892 18.6619 13.8613 18.5104 13.8613C18.3588 13.8613 18.2089 13.892 18.0695 13.9514C17.9301 14.0109 17.8041 14.0979 17.6992 14.2073L16.9423 14.9642L6.37769 4.39962L6.62923 2.66885L2.015 0ZM24.515 0.0357692C22.2385 -0.153462 19.22 1.35577 17.8077 2.66769C16.07 4.40538 16.3538 6.67731 17.735 8.87077L15.2842 11.3227L17.015 13.2692C17.9381 12.4615 19.2996 12.4615 20.2227 13.2692L20.6923 13.7377L20.8008 13.8462L21.8104 12.8365C23.8965 14.0631 26.0681 14.2396 27.7238 12.5838C29.3392 11.0838 31.0908 7.38462 30.2831 5.19231L27.0385 8.54538C26.5769 9.00692 25.8777 9.00692 25.4162 8.54538L22.0619 5.19231C21.9525 5.08741 21.8655 4.96148 21.806 4.82208C21.7466 4.68269 21.7159 4.5327 21.7159 4.38115C21.7159 4.2296 21.7466 4.07962 21.806 3.94022C21.8655 3.80083 21.9525 3.67489 22.0619 3.57L25.4173 0.216923C25.1288 0.115385 24.8404 0.0634615 24.515 0.0357692ZM11.8227 14.4231L7.63885 18.6058C7.18926 18.5059 6.72976 18.4575 6.26923 18.4615C3.03846 18.4615 0.5 21 0.5 24.2308C0.5 27.4615 3.03846 30 6.26923 30C9.5 30 12.0385 27.4615 12.0385 24.2308C12.0385 23.6388 11.945 23.07 11.7858 22.5358L14.2377 20.0838L13.8777 19.6154C12.9546 18.6923 12.9615 17.2938 13.7692 16.3696L11.8227 14.4231ZM20.765 19.6881C20.9092 19.6881 21.0454 19.7158 21.1608 19.8323L27.9765 26.6469C28.2073 26.8777 28.2073 27.2446 27.9765 27.4754C27.7458 27.7062 27.3765 27.7062 27.1458 27.4754L20.3323 20.6608C20.1015 20.43 20.1015 20.0631 20.3323 19.8323C20.4477 19.7169 20.6208 19.6881 20.765 19.6881ZM7.06308 21.2365L9.26231 23.4369L8.46846 26.4288L5.47654 27.2227L3.27615 25.0223L4.07 22.0304L7.06308 21.2365Z" fill="#3D3D3D"/>
</g>
<defs>
<clipPath id="clip0_220_37">
<rect width="30" height="30" fill="white" transform="translate(0.5)"/>
</clipPath>
</defs>
</svg>
