<svg width="30" height="30" viewBox="0 0 30 30" fill="none" xmlns="http://www.w3.org/2000/svg">
<path d="M17.9768 18.7675L19.5168 17.2275C19.7242 17.0227 19.9866 16.8825 20.2722 16.8239C20.5577 16.7653 20.8542 16.7909 21.1255 16.8975L23.0024 17.6469C23.2766 17.7582 23.5117 17.9482 23.678 18.1928C23.8444 18.4375 23.9347 18.726 23.9374 19.0219V22.4594C23.9358 22.6607 23.8935 22.8596 23.813 23.0441C23.7325 23.2286 23.6155 23.3949 23.4691 23.533C23.3226 23.6711 23.1497 23.7781 22.9608 23.8476C22.7719 23.9172 22.5709 23.9477 22.3699 23.9375C9.218 23.1194 6.56425 11.9819 6.06238 7.7194C6.03908 7.51008 6.06037 7.2982 6.12484 7.0977C6.18931 6.8972 6.2955 6.71262 6.43642 6.55611C6.57735 6.3996 6.74982 6.27469 6.94249 6.18962C7.13515 6.10455 7.34365 6.06124 7.55425 6.06253H10.8749C11.1712 6.06341 11.4605 6.15291 11.7055 6.31954C11.9505 6.48616 12.1401 6.72228 12.2499 6.99753L12.9993 8.8744C13.1094 9.14464 13.1375 9.44134 13.0801 9.72746C13.0226 10.0136 12.8821 10.2764 12.6761 10.4832L11.1361 12.0232C11.1361 12.0232 12.023 18.025 17.9768 18.7675Z" fill="black" fill-opacity="0.7"/>
</svg>
