<svg width="10" height="45" viewBox="0 0 10 45" fill="none" xmlns="http://www.w3.org/2000/svg">
<path fill-rule="evenodd" clip-rule="evenodd" d="M10 5C10 7.76142 7.76142 10 5 10C2.23858 10 0 7.76142 0 5C0 2.23858 2.23858 0 5 0C7.76142 0 10 2.23858 10 5ZM10 35V45H0V35H4.25V33.9603H5.25V35H10ZM5.25 31.877V29.7936H4.25V31.877H5.25ZM5.25 27.7103V25.627H4.25V27.7103H5.25ZM5.25 23.5436V21.4603H4.25V23.5436H5.25ZM5.25 19.377V17.2936H4.25V19.377H5.25ZM5.25 15.2103V13.127H4.25V15.2103H5.25ZM5.25 11.0436V10.002H4.25V11.0436H5.25Z" fill="#CEAC39"/>
</svg>
