<svg width="22" height="22" viewBox="0 0 22 22" fill="none" xmlns="http://www.w3.org/2000/svg">
<path d="M18 8C17.05 8 16.225 7.71667 15.525 7.15C14.825 6.58333 14.3583 5.86667 14.125 5H7.85C7.66667 5.7 7.32067 6.30433 6.812 6.813C6.30333 7.32167 5.69933 7.66733 5 7.85V14.125C5.86667 14.3583 6.58333 14.825 7.15 15.525C7.71667 16.225 8 17.05 8 18C8 19.1 7.60833 20.0417 6.825 20.825C6.04167 21.6083 5.1 22 4 22C2.9 22 1.95833 21.6083 1.175 20.825C0.391667 20.0417 0 19.1 0 18C0 17.05 0.283333 16.225 0.85 15.525C1.41667 14.825 2.13333 14.3583 3 14.125V7.85C2.13333 7.61667 1.41667 7.15 0.85 6.45C0.283333 5.75 0 4.93333 0 4C0 2.9 0.391667 1.95833 1.175 1.175C1.95833 0.391667 2.9 0 4 0C4.93333 0 5.75 0.283333 6.45 0.85C7.15 1.41667 7.61667 2.13333 7.85 3H14.125C14.3583 2.13333 14.825 1.41667 15.525 0.85C16.225 0.283333 17.05 0 18 0C19.1 0 20.0417 0.391667 20.825 1.175C21.6083 1.95833 22 2.9 22 4C22 5.1 21.6083 6.04167 20.825 6.825C20.0417 7.60833 19.1 8 18 8ZM4 20C4.55 20 5.021 19.8 5.413 19.4C5.805 19 6.00067 18.5333 6 18C6 17.45 5.804 16.979 5.412 16.587C5.02 16.195 4.54933 15.9993 4 16C3.46667 16 3 16.196 2.6 16.588C2.2 16.98 2 17.4507 2 18C2 18.5333 2.2 19 2.6 19.4C3 19.8 3.46667 20 4 20ZM4 6C4.55 6 5.021 5.804 5.413 5.412C5.805 5.02 6.00067 4.54933 6 4C6 3.45 5.804 2.979 5.412 2.587C5.02 2.195 4.54933 1.99933 4 2C3.46667 2 3 2.196 2.6 2.588C2.2 2.98 2 3.45067 2 4C2 4.55 2.2 5.021 2.6 5.413C3 5.805 3.46667 6.00067 4 6ZM18 22C16.9 22 15.9583 21.6083 15.175 20.825C14.3917 20.0417 14 19.1 14 18C14 16.9 14.3917 15.9583 15.175 15.175C15.9583 14.3917 16.9 14 18 14C19.1 14 20.0417 14.3917 20.825 15.175C21.6083 15.9583 22 16.9 22 18C22 19.1 21.6083 20.0417 20.825 20.825C20.0417 21.6083 19.1 22 18 22ZM18 20C18.55 20 19.021 19.8 19.413 19.4C19.805 19 20.0007 18.5333 20 18C20 17.45 19.804 16.979 19.412 16.587C19.02 16.195 18.5493 15.9993 18 16C17.45 16 16.979 16.196 16.587 16.588C16.195 16.98 15.9993 17.4507 16 18C16 18.5333 16.196 19 16.588 19.4C16.98 19.8 17.4507 20 18 20ZM18 6C18.55 6 19.021 5.804 19.413 5.412C19.805 5.02 20.0007 4.54933 20 4C20 3.45 19.804 2.979 19.412 2.587C19.02 2.195 18.5493 1.99933 18 2C17.45 2 16.979 2.196 16.587 2.588C16.195 2.98 15.9993 3.45067 16 4C16 4.55 16.196 5.021 16.588 5.413C16.98 5.805 17.4507 6.00067 18 6Z" fill="#EBDEB0"/>
</svg>
