<svg width="19" height="23" viewBox="0 0 19 23" fill="none" xmlns="http://www.w3.org/2000/svg">
<path d="M0.666748 11.8333C0.666748 12.125 0.782641 12.4048 0.988931 12.6111C1.19522 12.8174 1.47501 12.9333 1.76675 12.9333H10.1157L7.58575 15.4523C7.48265 15.5545 7.40081 15.6762 7.34497 15.8102C7.28912 15.9443 7.26037 16.088 7.26037 16.2333C7.26037 16.3785 7.28912 16.5222 7.34497 16.6563C7.40081 16.7903 7.48265 16.912 7.58575 17.0143C7.68801 17.1174 7.80967 17.1992 7.94371 17.255C8.07776 17.3109 8.22154 17.3396 8.36675 17.3396C8.51196 17.3396 8.65574 17.3109 8.78978 17.255C8.92383 17.1992 9.04549 17.1174 9.14775 17.0143L13.5477 12.6143C13.6479 12.5096 13.7264 12.3863 13.7787 12.2513C13.8888 11.9834 13.8888 11.6831 13.7787 11.4153C13.7264 11.2802 13.6479 11.1569 13.5477 11.0523L9.14775 6.65225C9.04519 6.54969 8.92343 6.46833 8.78942 6.41283C8.65542 6.35732 8.51179 6.32875 8.36675 6.32875C8.2217 6.32875 8.07808 6.35732 7.94407 6.41283C7.81007 6.46833 7.68831 6.54969 7.58575 6.65225C7.48319 6.75481 7.40183 6.87657 7.34632 7.01058C7.29082 7.14458 7.26225 7.28821 7.26225 7.43325C7.26225 7.5783 7.29082 7.72192 7.34632 7.85593C7.40183 7.98993 7.48319 8.11169 7.58575 8.21425L10.1157 10.7333H1.76675C1.47501 10.7333 1.19522 10.8491 0.988931 11.0554C0.782641 11.2617 0.666748 11.5415 0.666748 11.8333ZM14.9667 0.833252H3.96675C3.09153 0.833252 2.25217 1.18093 1.6333 1.7998C1.01443 2.41867 0.666748 3.25804 0.666748 4.13325V7.43325C0.666748 7.72499 0.782641 8.00478 0.988931 8.21107C1.19522 8.41736 1.47501 8.53325 1.76675 8.53325C2.05849 8.53325 2.33828 8.41736 2.54457 8.21107C2.75086 8.00478 2.86675 7.72499 2.86675 7.43325V4.13325C2.86675 3.84151 2.98264 3.56172 3.18893 3.35543C3.39522 3.14914 3.67501 3.03325 3.96675 3.03325H14.9667C15.2585 3.03325 15.5383 3.14914 15.7446 3.35543C15.9509 3.56172 16.0667 3.84151 16.0667 4.13325V19.5333C16.0667 19.825 15.9509 20.1048 15.7446 20.3111C15.5383 20.5174 15.2585 20.6333 14.9667 20.6333H3.96675C3.67501 20.6333 3.39522 20.5174 3.18893 20.3111C2.98264 20.1048 2.86675 19.825 2.86675 19.5333V16.2333C2.86675 15.9415 2.75086 15.6617 2.54457 15.4554C2.33828 15.2491 2.05849 15.1333 1.76675 15.1333C1.47501 15.1333 1.19522 15.2491 0.988931 15.4554C0.782641 15.6617 0.666748 15.9415 0.666748 16.2333V19.5333C0.666748 20.4085 1.01443 21.2478 1.6333 21.8667C2.25217 22.4856 3.09153 22.8333 3.96675 22.8333H14.9667C15.842 22.8333 16.6813 22.4856 17.3002 21.8667C17.9191 21.2478 18.2667 20.4085 18.2667 19.5333V4.13325C18.2667 3.25804 17.9191 2.41867 17.3002 1.7998C16.6813 1.18093 15.842 0.833252 14.9667 0.833252Z" fill="#EC5F59"/>
</svg>
